<?xml version="1.0" encoding="UTF-8" standalone="no"?>
<svg xmlns:xlink="http://www.w3.org/1999/xlink" height="76.1px" width="196.7px" xmlns="http://www.w3.org/2000/svg">
  <g transform="matrix(1.0, 0.0, 0.0, 1.0, 98.1, 52.15)">
    <path d="M88.55 -50.15 L98.6 -42.5 98.6 14.0 87.05 23.95 -86.15 23.95 -98.1 15.5 -98.1 -42.15 -87.0 -50.15 88.55 -50.15" fill="#000000" fill-opacity="0.5019608" fill-rule="evenodd" stroke="none"/>
    <path d="M86.35 -51.65 L88.3 -50.25 96.3 -44.35 96.3 9.45 84.9 18.65 -84.3 18.65 -96.1 8.7 -96.1 -44.0 -85.2 -51.65 86.35 -51.65 M93.35 -42.35 L84.25 -48.75 -83.55 -48.75 -92.75 -42.15 -92.7 7.4 -83.55 15.3 83.75 15.3 93.35 7.75 93.35 -42.35" fill="#5f5f65" fill-rule="evenodd" stroke="none"/>
    <path d="M93.35 -42.35 L83.8 -46.95 -82.9 -46.95 -92.75 -42.15 -83.55 -48.75 84.25 -48.75 93.35 -42.35" fill="#282b2d" fill-rule="evenodd" stroke="none"/>
    <path d="M89.7 -37.8 L89.7 -39.95 83.1 -44.2 -82.0 -44.2 -89.0 -39.9 -89.0 -36.9 -89.0 4.95 -81.8 11.4 82.45 11.4 89.7 5.2 89.7 -37.8 M-92.75 -42.15 L-82.9 -46.95 83.8 -46.95 93.35 -42.35 93.35 7.75 83.75 15.3 -83.55 15.3 -92.7 7.4 -92.75 -42.15" fill="#424346" fill-rule="evenodd" stroke="none"/>
    <path d="M-89.0 -36.9 L-87.8 -38.15 -81.15 -41.0 82.05 -41.0 89.7 -37.8 89.7 5.2 82.45 11.4 -81.8 11.4 -89.0 4.95 -89.0 -36.9" fill="#151515" fill-rule="evenodd" stroke="none"/>
    <path d="M89.7 -37.8 L82.05 -41.0 -81.15 -41.0 -87.8 -38.15 -89.0 -36.9 -89.0 -39.9 -82.0 -44.2 83.1 -44.2 89.7 -39.95 89.7 -37.8" fill="#000000" fill-rule="evenodd" stroke="none"/>
    <path d="M86.35 -51.65 L-85.2 -51.65 -96.1 -44.0 -96.1 8.7 -84.3 18.65 84.9 18.65 96.3 9.45 96.3 -44.35 88.3 -50.25 86.35 -51.65 M89.7 -37.8 L89.7 -39.95 83.1 -44.2 -82.0 -44.2 -89.0 -39.9 -89.0 -36.9 -89.0 4.95 -81.8 11.4 82.45 11.4 89.7 5.2 89.7 -37.8 M93.35 -42.35 L84.25 -48.75 -83.55 -48.75 -92.75 -42.15 -92.7 7.4 -83.55 15.3 83.75 15.3 93.35 7.75 93.35 -42.35 Z" fill="none" stroke="#141416" stroke-linecap="round" stroke-linejoin="miter-clip" stroke-miterlimit="3.0" stroke-width="1.0"/>
  </g>
</svg>
